<svg xmlns="http://www.w3.org/2000/svg" fill="none" viewBox="0 0 128 128"><g id="uv-index-11-plus__uv-index-11-plus" clip-path="url(#uv-index-11-plus__clip0_1837_5040)"><g id="uv-index-11-plus__UV Sun"><mask id="uv-index-11-plus__mask0_1837_5040" width="128" height="128" x="0" y="0" maskUnits="userSpaceOnUse" style="mask-type:alpha"><path id="uv-index-11-plus__Cutout" fill="#000" d="M128 0H0v128h64V85c0-11.598 9.402-21 21-21h43z"/></mask><g mask="url(#uv-index-11-plus__mask0_1837_5040)"><g id="uv-index-11-plus__Sun"><circle id="uv-index-11-plus__Core" cx="64" cy="64" r="19.5" fill="url(#uv-index-11-plus__paint0_linear_1837_5040)" stroke="#f8af18"/><g id="uv-index-11-plus__Rays"><path fill="#f8af18" d="M61 19a3 3 0 1 1 6 0v14a3 3 0 0 1-6 0zM93.699 30.059A3 3 0 1 1 97.94 34.3l-9.9 9.9a3 3 0 1 1-4.242-4.243zM109 61a3 3 0 1 1 0 6H95a3 3 0 1 1 0-6zM97.941 93.699a3 3 0 1 1-4.243 4.242l-9.899-9.9a3 3 0 1 1 4.243-4.242zM61 95a3 3 0 1 1 6 0v14a3 3 0 1 1-6 0zM39.958 83.799a3 3 0 1 1 4.243 4.243l-9.9 9.9a3 3 0 1 1-4.242-4.243zM33 61a3 3 0 1 1 0 6H19a3 3 0 0 1 0-6zM44.201 39.958a3 3 0 1 1-4.243 4.243l-9.9-9.9a3 3 0 1 1 4.243-4.242z"/></g></g><path id="uv-index-11-plus__Fix" stroke="#f8af18" d="M63.5 83.5c.536-11.47 8.257-19.669 20-20"/></g></g><g id="uv-index-11-plus__Severity"><rect width="41" height="30" x="79" y="79" fill="#9936d4" rx="9"/><path id="uv-index-11-plus__Text" fill="#fff" d="M91.896 100h-3.18v-7.565h-2.991V90.31h.51q1.308 0 2.074-.561.713-.527.935-1.717l.034-.136h2.618zm8.284 0H97v-7.565H94.01V90.31h.51q1.31 0 2.074-.561.714-.527.935-1.717l.034-.136h2.618zm8.964-6.494h3.502v2.244h-3.502v3.57h-2.397v-3.57h-3.485v-2.244h3.485v-3.57h2.397z"/></g></g><defs><linearGradient id="uv-index-11-plus__paint0_linear_1837_5040" x1="64" x2="64" y1="44" y2="84" gradientUnits="userSpaceOnUse"><stop stop-color="#fbbf24"/><stop offset="1" stop-color="#f8af18"/></linearGradient><clipPath id="uv-index-11-plus__clip0_1837_5040"><rect width="128" height="128" fill="#fff"/></clipPath></defs></svg>